# xmcd CD database file
#
# Track frame offsets:
#	150
#	23661
#	50130
#	70029
#	90628
#	117572
#	140356
#	163704
#	180412
#	200224
#	222558
#	251266
#
# Disc length: 3710 seconds
#
# Revision: 0
# Processed by: cddbd v1.5.1PL2 Copyright (c) Steve Scherf et al.
# Submitted via: CDex 1.51
#
DISCID=af0e7c0c
DTITLE=Jack Grunsky - Coastlines
DYEAR=2006
DGENRE=Jazz
TTITLE0=Jack Grunsky -  Down The Boulevard
TTITLE1=Jack Grunsky - Lago D'Amour
TTITLE2=Jack Grunsky - Times Squared
TTITLE3=Jack Grunsky - Big Bass Lounge
TTITLE4=Jack Grunsky - Poolside Manners
TTITLE5=Jack Grunsky - Night Train To Paris
TTITLE6=Jack Grunsky - Cote D'Azur
TTITLE7=Jack Grunsky - Autostrada
TTITLE8=Jack Grunsky - Queen St E
TTITLE9=Jack Grunsky - Queen St W
TTITLE10=Jack Grunsky - Costa Del Sol
TTITLE11=Jack Grunsky - Balcony Buzz
EXTD=YEAR: 2006
EXTT0=
EXTT1=
EXTT2=
EXTT3=
EXTT4=
EXTT5=
EXTT6=
EXTT7=
EXTT8=
EXTT9=
EXTT10=
EXTT11=
PLAYORDER=
